<?xml version="1.0" encoding="UTF-8" standalone="no"?><!DOCTYPE svg PUBLIC "-//W3C//DTD SVG 1.1//EN" "http://www.w3.org/Graphics/SVG/1.1/DTD/svg11.dtd"><svg width="100%" height="100%" viewBox="0 0 867 375" version="1.1" xmlns="http://www.w3.org/2000/svg" xmlns:xlink="http://www.w3.org/1999/xlink" xml:space="preserve" xmlns:serif="http://www.serif.com/" style="fill-rule:evenodd;clip-rule:evenodd;"><path d="M845.833,75.701c0,-25.899 -20.995,-46.895 -46.895,-46.895c-147.356,0 -599.457,0 -737.592,0c-10.745,0 -21.049,4.269 -28.647,11.866c-7.597,7.598 -11.866,17.902 -11.866,28.647c0,62.714 0,182.246 0,241.609c0,19.477 15.789,35.266 35.266,35.266c130.188,-0 584.17,-0 738.175,-0c28.475,-0 51.559,-23.084 51.559,-51.56c0,-60.63 0,-160.4 0,-218.933Z" style="fill:none;stroke:#000;stroke-width:35.07px;"/><path d="M727.584,282.917l-84.191,-92.611l56.127,0l0,-98.223l56.128,0l-0,98.223l56.127,0l-84.191,92.611Z" style="fill-rule:nonzero;"/><g transform="matrix(266.667,0,0,266.667,655.98,283.454)"></g><text x="48.559px" y="283.454px" style="font-family:'Arial-Black', 'Arial Black', sans-serif;font-weight:900;font-size:266.667px;">RAP</text></svg>