<?xml version="1.0" encoding="UTF-8" standalone="no"?><!DOCTYPE svg PUBLIC "-//W3C//DTD SVG 1.1//EN" "http://www.w3.org/Graphics/SVG/1.1/DTD/svg11.dtd"><svg width="100%" height="100%" viewBox="0 0 867 375" version="1.1" xmlns="http://www.w3.org/2000/svg" xmlns:xlink="http://www.w3.org/1999/xlink" xml:space="preserve" xmlns:serif="http://www.serif.com/" style="fill-rule:evenodd;clip-rule:evenodd;"><path d="M837.5,88.145c-0,-12.437 -4.941,-24.365 -13.735,-33.16c-8.795,-8.794 -20.723,-13.735 -33.16,-13.735l-720.926,-0c-10.744,-0 -21.049,4.268 -28.646,11.866c-7.598,7.597 -11.866,17.902 -11.866,28.647c-0,57.585 -0,162.16 -0,216.721c-0,19.477 15.789,35.266 35.265,35.266c128.198,-0 569.902,-0 721.508,-0c13.675,0 26.789,-5.432 36.459,-15.101c9.669,-9.67 15.101,-22.784 15.101,-36.459c0,-54.892 0,-141.004 0,-194.045Z" style="fill:#010000;stroke:#000;stroke-width:33.77px;"/><path d="M727.584,282.917l-84.191,-92.611l56.127,0l0,-98.223l56.128,0l-0,98.223l56.127,0l-84.191,92.611Z" style="fill:#fff;fill-rule:nonzero;"/><g transform="matrix(266.667,0,0,266.667,655.98,283.454)"></g><text x="48.559px" y="283.454px" style="font-family:'Arial-Black', 'Arial Black', sans-serif;font-weight:900;font-size:266.667px;fill:#fff;">RAP</text></svg>