<?xml version="1.0" encoding="UTF-8" standalone="no"?><!DOCTYPE svg PUBLIC "-//W3C//DTD SVG 1.1//EN" "http://www.w3.org/Graphics/SVG/1.1/DTD/svg11.dtd"><svg width="100%" height="100%" viewBox="0 0 10505 12130" version="1.1" xmlns="http://www.w3.org/2000/svg" xmlns:xlink="http://www.w3.org/1999/xlink" xml:space="preserve" xmlns:serif="http://www.serif.com/" style="fill-rule:evenodd;clip-rule:evenodd;stroke-linejoin:round;stroke-miterlimit:2;"><g><path d="M10085.4,2790.42l-3971.25,-2292.92l-862.084,-497.5l-862.083,497.917l-3971.25,2292.5l-418.75,242.083l0,6064.58l418.75,241.667l4020.83,2321.25l812.5,469.167l812.5,-469.167l4020.42,-2321.25l418.75,-241.667l0,-6064.58l-418.333,-242.083Zm-334.584,6272.5l-50,28.75l-920,531.25l-86.666,50l-1166.67,673.75l-50,28.75l-2201.67,1270.42l-23.75,14.167l-26.25,-14.167l-2207.08,-1275l-50,-28.75l-1159.17,-669.583l-86.666,-50l-942.5,-544.167l-50,-28.75l-312.084,-180.416l0,-5581.25l312.084,-180l50,-28.75l238.75,-137.917l85.833,-50l1863.75,-1075.83l50,-28.75l2206.67,-1273.75l26.25,-15l23.75,14.166l2201.25,1271.25l50,28.75l1535.83,885.834l951.667,549.166l71.666,41.25l0,5580.83l-335,193.75Z" style="fill:#030000;fill-rule:nonzero;"/><path d="M9451.37,8855.32l-46.674,26.838l-858.802,495.911l-80.902,46.674l-1089.06,628.932l-46.674,26.838l-2055.21,1185.91l-22.17,13.225l-24.504,-13.225l-2060.27,-1190.19l-46.674,-26.837l-1082.06,-625.043l-80.902,-46.674l-879.805,-507.969l-46.674,-26.837l-291.324,-168.416l0,-5209.99l291.324,-168.026l46.674,-26.838l222.868,-128.742l80.124,-46.674l1739.77,-1004.27l46.674,-26.838l2059.88,-1189.02l24.504,-14.003l22.17,13.225l2054.82,1186.69l46.674,26.838l1433.67,826.908l888.362,512.636l66.9,38.506l-0,5209.6l-312.716,180.862Z" style="fill:#030000;"/><path d="M8285.6,7048.26l-867.951,-954.745l578.634,0l-0,-1012.61l578.633,0l0,1012.61l578.634,0l-867.95,954.745Z" style="fill:#fff;fill-rule:nonzero;"/><g transform="matrix(2749.14,0,0,2749.14,7547.41,7053.8)"></g><text x="1285.33px" y="7053.8px" style="font-family:'Arial-Black', 'Arial Black', sans-serif;font-weight:900;font-size:2749.14px;fill:#fff;">RAP</text></g></svg>