<?xml version="1.0" encoding="UTF-8" standalone="no"?><!DOCTYPE svg PUBLIC "-//W3C//DTD SVG 1.1//EN" "http://www.w3.org/Graphics/SVG/1.1/DTD/svg11.dtd"><svg width="100%" height="100%" viewBox="0 0 10505 12130" version="1.1" xmlns="http://www.w3.org/2000/svg" xmlns:xlink="http://www.w3.org/1999/xlink" xml:space="preserve" xmlns:serif="http://www.serif.com/" style="fill-rule:evenodd;clip-rule:evenodd;stroke-linecap:round;stroke-linejoin:round;stroke-miterlimit:1.5;"><g><path d="M10139.8,9307.07l-54.325,31.241l-999.581,577.277l-94.163,54.332l-1267.59,732.124l-54.325,31.241l-2392.11,1380.49l-25.804,15.394l-28.521,-15.394l-2398,-1385.47l-54.325,-31.241l-1259.44,-727.596l-94.164,-54.332l-1024.03,-591.314l-54.325,-31.241l-339.079,-196.048l-0,-6064.81l339.079,-195.595l54.325,-31.241l259.402,-149.866l93.258,-54.332l2024.97,-1169.04l54.325,-31.241l2397.55,-1384.11l28.52,-16.3l25.805,15.394l2391.66,1381.39l54.325,31.241l1668.68,962.582l1033.99,596.747l77.866,44.823l0,6064.36l-363.978,210.537Z" style="fill:#fff;stroke:#fff;stroke-width:4.17px;"/><path d="M10085.4,2790.42l-3971.25,-2292.92l-862.084,-497.5l-862.083,497.917l-3971.25,2292.5l-418.75,242.083l0,6064.58l418.75,241.667l4020.83,2321.25l812.5,469.167l812.5,-469.167l4020.42,-2321.25l418.75,-241.667l0,-6064.58l-418.333,-242.083Zm-334.584,6272.5l-50,28.75l-920,531.25l-86.666,50l-1166.67,673.75l-50,28.75l-2201.67,1270.42l-23.75,14.167l-26.25,-14.167l-2207.08,-1275l-50,-28.75l-1159.17,-669.583l-86.666,-50l-942.5,-544.167l-50,-28.75l-312.084,-180.416l0,-5581.25l312.084,-180l50,-28.75l238.75,-137.917l85.833,-50l1863.75,-1075.83l50,-28.75l2206.67,-1273.75l26.25,-15l23.75,14.166l2201.25,1271.25l50,28.75l1535.83,885.834l951.667,549.166l71.666,41.25l0,5580.83l-335,193.75Z" style="fill:#005eb8;fill-rule:nonzero;stroke:#005eb8;stroke-width:4.17px;stroke-linecap:butt;stroke-miterlimit:2;"/><path d="M9451.37,8855.32l-46.674,26.838l-858.802,495.911l-80.902,46.674l-1089.06,628.932l-46.674,26.838l-2055.21,1185.91l-22.17,13.225l-24.504,-13.225l-2060.27,-1190.19l-46.674,-26.837l-1082.06,-625.043l-80.902,-46.674l-879.805,-507.969l-46.674,-26.837l-291.324,-168.416l0,-5209.99l291.324,-168.026l46.674,-26.838l222.868,-128.742l80.124,-46.674l1739.77,-1004.27l46.674,-26.838l2059.88,-1189.02l24.504,-14.003l22.17,13.225l2054.82,1186.69l46.674,26.838l1433.67,826.908l888.362,512.636l66.9,38.506l-0,5209.6l-312.716,180.862Z" style="fill:#005eb8;stroke:#005eb8;stroke-width:4.17px;"/><g transform="matrix(3642.51,0,0,3642.51,8529.41,7359.31)"></g><text x="1972.9px" y="7359.31px" style="font-family:'PTMono-Regular', 'PT Mono', monospace;font-size:3642.51px;fill:#fff;">RAP</text><g transform="matrix(4625.6,0,0,4625.6,3132.48,7159.19)"></g><text x="357.117px" y="7159.19px" style="font-family:'PTMono-Regular', 'PT Mono', monospace;font-size:4625.6px;fill:#fff;">{</text><g transform="matrix(4625.6,0,0,4625.6,10150.8,7153.91)"></g><text x="7375.44px" y="7153.91px" style="font-family:'PTMono-Regular', 'PT Mono', monospace;font-size:4625.6px;fill:#fff;">}</text></g></svg>